<svg width="66" height="80" viewBox="0 0 66 80" fill="none" xmlns="http://www.w3.org/2000/svg">
<path d="M0.149757 49.8913C-0.326813 44.8892 0.336021 40.0937 2.11013 35.4987C5.88133 25.7311 12.7713 19.1694 22.6224 15.7851C26.1202 14.5835 29.7494 14.1091 33.4446 14.1531C33.7044 14.1562 33.9644 14.1495 34.2239 14.1389C34.269 14.1371 34.3124 14.0931 34.4015 14.0436C34.1942 13.4982 33.926 12.9606 33.7857 12.3912C33.3872 10.7738 34.0178 9.47231 35.1406 8.36311C35.6576 7.85228 36.1928 7.46971 35.7019 6.54403C35.3243 5.83214 35.8406 4.9029 36.6995 4.48669C37.2701 4.21018 37.428 3.84466 37.4015 3.25813C37.3661 2.4743 37.3802 1.68669 37.4088 0.902027C37.4257 0.439612 37.5272 -0.0279343 38.1428 0.00130368C38.7125 0.0283597 38.7698 0.49276 38.7838 0.913308C38.8124 1.77666 38.8102 2.64162 38.7971 3.50556C38.7905 3.94058 38.9198 4.21048 39.3395 4.43042C40.5685 5.07443 40.8353 5.85469 40.2622 7.14276C40.0564 7.60524 40.3491 7.76909 40.5774 7.98835C41.422 8.79937 42.0867 9.69925 42.3035 10.8984C42.5288 12.1448 42.1423 13.2127 41.497 14.234C40.9813 15.0502 41.0789 15.241 42.0006 15.5455C54.3522 19.625 62.0901 28.0286 64.7688 40.8119C66.7823 50.4203 64.5949 59.2727 58.7075 67.0992C53.586 73.9074 46.7488 78.1994 38.3832 79.4966C25.2058 81.54 14.4154 77.0915 6.29274 66.4251C2.76785 61.7963 0.893241 56.4419 0.186631 50.6691C0.158097 50.436 0.162848 50.1988 0.149757 49.8913ZM23.4947 61.5664C24.1603 60.7954 24.7775 59.9742 25.5043 59.2668C26.3342 58.459 26.7503 57.5087 26.935 56.3873C27.0096 55.9347 26.9843 55.6133 26.6955 55.2391C25.9383 54.2579 26.0909 52.9227 27.2085 52.4289C28.2753 51.9576 28.3667 51.2644 28.2826 50.334C28.2568 50.0483 28.2893 49.7578 28.2773 49.4702C28.2274 48.2775 28.6315 47.256 29.4611 46.4194C29.7691 46.1088 29.8483 45.7734 29.8453 45.3612C29.8333 43.6853 29.8576 42.009 29.8327 40.3333C29.8221 39.6145 29.9397 38.9388 30.1712 38.2609C31.7341 33.6845 33.281 29.1026 34.8321 24.5221C34.9327 24.2249 35.0139 23.9282 35.0122 23.6044C35.0003 21.3523 34.982 19.0999 35.0086 16.8482C35.0164 16.1893 34.7507 15.9757 34.1378 15.9556C31.2114 15.8596 28.3175 16.1017 25.469 16.7882C8.93023 20.7735 -1.40261 37.7874 2.64324 54.3712C3.24574 56.8408 4.11993 59.2085 5.32672 61.4548C5.61196 61.336 5.85024 61.1487 6.08237 61.1561C6.84308 61.1804 6.89337 60.7392 6.88242 60.1458C6.8568 58.7584 6.8097 57.3662 6.89064 55.983C7.00607 54.0103 6.24864 52.3323 5.19028 50.8006C2.98701 47.6119 2.99918 43.9725 5.40161 40.9186C6.41842 39.6261 7.4732 38.3531 8.61707 37.1758C9.47172 36.2961 9.84964 35.281 10.035 34.1234C10.0845 33.814 10.0521 33.5983 9.85785 33.3385C8.90441 32.0629 9.19979 30.7913 10.6443 30.1357C11.1762 29.8944 11.3059 29.5735 11.2909 29.0507C11.2676 28.2398 11.2743 27.4268 11.3066 26.6162C11.3237 26.1853 11.5338 25.8328 12.0258 25.8625C12.4812 25.89 12.6083 26.2285 12.6064 26.6432C12.6028 27.4288 12.6431 28.2162 12.6007 28.9993C12.5681 29.6005 12.7381 29.9285 13.338 30.1706C14.5422 30.6565 14.9859 31.8967 14.4309 32.9396C13.8539 34.0239 14.0692 35.7678 14.8939 36.6806C16.0493 37.9598 17.2169 39.2281 18.3589 40.5192C21.0014 43.5064 21.4018 47.3053 19.3174 50.3226C18.5392 51.4491 17.9234 52.6504 17.2927 53.852C17.1475 54.1285 16.9917 54.4049 16.9916 54.734C16.9909 56.6719 16.9907 58.6098 16.9868 60.5477C16.9861 60.8755 17.0686 61.1111 17.4552 61.124C17.9522 61.1407 18.1627 61.4883 18.328 61.9C18.6688 62.7484 18.9424 63.6383 19.3924 64.4251C20.2016 65.84 20.4272 67.2503 20.0219 68.8603C19.5721 70.6472 18.8509 72.3974 18.9889 74.302C19.0074 74.5576 18.9301 74.8698 19.2044 75.0154C20.6224 75.7681 22.0965 76.3769 23.7099 76.8031C23.7257 76.5722 23.7775 76.4298 23.7363 76.3241C23.2817 75.1588 22.9246 73.9509 22.1984 72.9057C20.5512 70.535 19.9221 67.9998 21.0104 65.1978C21.5428 63.8272 22.4842 62.7407 23.4947 61.5664ZM55.972 38.3196C56.7088 39.1319 57.455 39.9358 58.1806 40.7581C60.7637 43.685 60.9697 47.6322 58.7125 50.788C57.3506 52.692 56.3361 54.6893 56.6466 57.1645C56.7727 58.1697 56.6836 59.2045 56.662 60.2252C56.6512 60.7353 56.6664 61.1549 57.3234 61.2275C57.7427 61.2739 57.8687 61.6649 58.0167 62.004C58.2585 62.5582 58.374 63.1777 58.8737 63.7792C64.8189 53.4143 65.5771 42.9449 60.0135 32.362C56.0029 24.7333 49.6738 19.7976 41.3366 17.156C41.3366 19.2174 41.3468 21.0453 41.3308 22.873C41.3256 23.4719 41.3172 24.0463 41.5208 24.6366C42.8077 28.367 44.059 32.1098 45.3258 35.8472C45.6993 36.9491 46.0848 38.0468 46.5107 39.2796C47.2634 38.4182 47.8706 37.634 48.5706 36.9451C49.4058 36.1231 49.4878 35.049 49.7196 34.0128C49.7642 33.8135 49.6767 33.6709 49.5698 33.511C48.5604 32.0021 48.81 30.9869 50.4227 30.1719C50.8047 29.9788 50.963 29.752 50.9531 29.3283C50.9329 28.4648 50.9401 27.6001 50.9598 26.7365C50.9697 26.3035 51.1521 25.9454 51.6419 25.9435C52.1459 25.9416 52.2873 26.3038 52.2893 26.7443C52.2927 27.5035 52.3277 28.265 52.2824 29.0215C52.245 29.6455 52.4228 29.9974 53.033 30.2768C54.3717 30.8898 54.692 32.1179 53.8911 33.3181C53.6999 33.6045 53.642 33.8563 53.6829 34.1875C53.8361 35.4275 54.1119 36.5963 55.153 37.4343C55.4343 37.6607 55.6524 37.9666 55.972 38.3196ZM32.7949 57.8147C37.0064 57.8145 41.2179 57.8149 45.4295 57.8135C46.4436 57.8132 46.4459 57.8106 46.4583 56.7598C46.4648 56.2108 46.42 55.6577 46.4723 55.1137C46.5498 54.3076 46.2194 54.0929 45.4435 54.0989C41.2063 54.1317 36.9687 54.1113 32.7312 54.1179C32.3756 54.1185 31.8556 53.9514 31.6997 54.2586C31.4231 54.8033 30.9438 55.289 30.9043 55.9168C30.8145 57.3459 31.2764 57.8159 32.7949 57.8147ZM35.942 60.8449C36.2245 61.2071 36.3069 61.6268 36.3858 62.0757C36.5219 62.8494 36.2937 63.6678 36.6301 64.4009C37.0243 65.2601 37.3618 66.1266 37.5068 67.0686C37.5451 67.3176 37.54 67.7229 37.9591 67.6798C38.3807 67.6364 38.2714 67.2588 38.273 66.9934C38.283 65.3971 38.277 63.8007 38.2807 62.2043C38.2829 61.2717 38.7234 60.5996 39.5492 60.2113C40.9828 59.5371 42.5416 60.583 42.5855 62.2734C42.6263 63.8426 42.5912 65.4136 42.604 66.9837C42.6063 67.2678 42.4812 67.6931 42.981 67.6816C43.4134 67.6717 43.4159 67.2815 43.4238 66.9777C43.4349 66.5503 43.4962 66.1225 43.6853 65.7596C44.3313 64.5198 44.6565 63.1776 45.0026 61.8405C45.1011 61.4596 45.3417 61.2287 45.705 61.206C46.7964 61.1377 46.4163 60.3181 46.4439 59.7424C46.4784 59.0244 45.9056 59.1782 45.4924 59.1775C41.355 59.1706 37.2176 59.1714 33.0802 59.1789C32.8703 59.1793 32.6137 59.068 32.4387 59.3323C32.7567 59.855 33.0965 60.1928 33.8153 60.0427C34.5883 59.8813 35.3065 60.1503 35.942 60.8449ZM49.4556 45.4577C48.7473 45.4745 48.3713 44.8951 47.8798 44.5424C46.3358 43.4343 46.9602 43.4986 45.4434 44.5237C44.3744 45.2462 44.18 45.7991 44.7977 47.4862C45.1105 47.4695 45.3 47.2309 45.5188 47.0594C46.6328 46.186 46.6298 46.1822 47.759 47.0558C49.3044 48.2515 49.3044 48.2514 50.8079 46.9614C50.9068 46.8766 51.0101 46.7967 51.107 46.7097C51.585 46.2803 52.0229 46.3292 52.4711 46.7784C52.8942 47.2024 53.3689 47.5748 53.7882 48.0023C54.0907 48.3108 54.3164 48.3323 54.6263 48.0092C55.0588 47.5582 55.5402 47.155 55.9891 46.7193C56.3969 46.3233 56.7899 46.2993 57.2208 46.6869C57.6581 47.0804 58.1155 47.4513 58.5843 47.8492C59.2544 46.0098 58.9757 45.5555 57.9866 44.8524C57.6698 44.6273 57.3853 44.352 57.1062 44.0788C56.7807 43.7602 56.5047 43.7594 56.1802 44.0961C55.8009 44.4897 55.3851 44.8484 54.9774 45.2136C54.3027 45.8181 54.074 45.8122 53.392 45.1849C52.9891 44.8143 52.5766 44.4528 52.1939 44.0618C51.8725 43.7335 51.6039 43.7347 51.2619 44.0418C50.7206 44.5278 50.2012 45.0455 49.4556 45.4577ZM41.4821 35.9795C41.8608 35.0338 42.234 34.0857 42.6219 33.1438C42.7353 32.8683 42.782 32.6209 42.6776 32.3188C41.7991 29.7763 40.9271 27.2315 40.0797 24.6784C39.9079 24.161 39.5837 24.0744 39.1236 24.1239C38.605 24.1797 38.7021 24.5729 38.7008 24.8952C38.6939 26.6481 38.7982 28.4084 38.6725 30.1522C38.5108 32.396 38.9464 34.4497 40.0931 36.3649C40.3225 36.748 40.3841 37.2356 40.8141 37.6087C41.0435 37.0496 41.2402 36.5702 41.4821 35.9795ZM34.5673 29.4671C34.3583 30.0846 34.2204 30.7391 33.9259 31.3121C33.2247 32.6766 33.3889 33.9386 34.1129 35.2349C34.5322 35.9854 34.8137 36.8139 35.2265 37.7675C35.9561 36.2347 36.5929 34.8929 37.2341 33.5532C37.3525 33.3059 37.3399 33.0452 37.34 32.785C37.341 30.1717 37.3448 27.5584 37.3344 24.9452C37.3331 24.6369 37.4799 24.2234 36.9714 24.129C36.4722 24.0363 36.3016 24.3265 36.163 24.7537C35.6637 26.2921 35.1301 27.8192 34.5673 29.4671ZM45.5605 71.1388C45.7527 72.2915 45.7527 72.2915 46.8479 72.2924C47.0301 72.2925 47.2124 72.2923 47.3946 72.2922C51.1033 72.2894 51.1046 72.2908 53.8588 69.7605C54.3236 69.3335 54.8005 68.9132 55.1664 68.3871C51.7312 68.3871 48.3729 68.3871 44.9451 68.3871C45.1593 69.3348 45.3485 70.1715 45.5605 71.1388ZM31.4452 42.7413C32.4301 41.8503 33.6188 41.6874 34.8725 41.7912C36.1954 41.9007 37.2092 42.5525 37.9282 43.7581C39.1633 41.8421 40.8414 41.3661 42.8684 41.8244C43.2925 41.9203 43.72 42.3769 44.0913 42.1561C44.4575 41.9384 44.6539 41.4296 44.9205 41.0455C45.0702 40.8298 45.239 40.6001 45.0794 40.3295C44.9332 40.0816 44.6615 40.1632 44.4378 40.1623C42.8782 40.1562 41.3186 40.1592 39.759 40.1591C37.1597 40.1589 34.5602 40.1719 31.9611 40.1482C31.3659 40.1428 31.0936 40.3214 31.1309 40.9494C31.1649 41.5223 31.1379 42.0991 31.1332 42.6741C31.1314 42.8921 31.1822 42.9861 31.4452 42.7413ZM46.0499 42.2944C46.5359 41.9626 46.9793 42.0675 47.4043 42.4207C47.6246 42.6038 47.8533 42.777 48.0797 42.9527C49.3283 43.9216 49.3284 43.9214 50.5332 42.846C51.6807 41.8218 51.8171 41.8338 52.9764 42.9037C54.4841 44.2953 54.0265 44.1765 55.4304 42.8965C56.5406 41.8843 56.5222 41.8647 57.7615 42.7315C57.7859 42.7486 57.8475 42.7119 57.9037 42.6971C57.5657 41.9356 56.9142 41.4257 56.4273 40.7878C55.9647 40.1818 55.6006 40.0627 55.0322 40.7013C54.3813 41.4324 54.1349 41.3926 53.419 40.7352C53.2654 40.5942 53.1178 40.4465 52.9664 40.303C51.7533 39.1527 51.7533 39.1527 50.4933 40.2761C49.4137 41.2387 49.4176 41.2333 48.2687 40.3828C48.0567 40.2259 47.8215 39.8778 47.5329 40.1312C46.7943 40.7798 46.2119 41.5658 45.7602 42.4495C45.8297 42.4157 45.8993 42.3819 46.0499 42.2944ZM36.0703 13.6281C37.1108 13.6382 38.1514 13.6531 39.1919 13.6569C40.2765 13.6608 40.5434 13.4694 40.8733 12.4348C41.0881 11.7612 41.0433 11.0977 40.7513 10.4486C40.3507 9.55815 39.5837 8.9866 38.92 8.33055C38.6577 8.0712 37.3013 8.18854 37.0272 8.45071C36.5938 8.86527 36.1484 9.27371 35.7635 9.7318C34.6944 11.0041 34.7749 12.3628 36.0703 13.6281ZM10.9112 54.9044C10.2344 54.9039 9.55719 54.9194 8.88111 54.8978C8.3831 54.8819 8.17636 55.0864 8.18037 55.5899C8.19329 57.2128 8.19353 58.8359 8.1788 60.4588C8.17415 60.9703 8.39544 61.1523 8.88599 61.1459C9.3625 61.1396 9.702 61.0625 9.68571 60.4655C9.66358 59.6546 9.67604 58.8425 9.68763 58.0312C9.70659 56.7051 10.5987 55.7427 11.8281 55.7077C13.1275 55.6708 14.1285 56.6534 14.1632 58.025C14.1831 58.8098 14.1892 59.5964 14.1609 60.3806C14.1423 60.8972 14.2856 61.1498 14.8537 61.1499C15.4037 61.1501 15.6602 60.9999 15.6493 60.3949C15.6209 58.8247 15.6168 57.2532 15.6531 55.6833C15.6681 55.0363 15.3953 54.8781 14.8152 54.8915C13.5665 54.9206 12.3167 54.9032 10.9112 54.9044ZM55.3229 60.2586C55.3226 58.7138 55.3168 57.1691 55.3254 55.6244C55.3277 55.2109 55.2695 54.9018 54.7505 54.9039C52.6419 54.9123 50.5333 54.909 48.4247 54.9059C48.0253 54.9053 47.8667 55.1135 47.867 55.4924C47.8682 57.168 47.8734 58.8436 47.8627 60.5191C47.8591 61.0774 48.1882 61.1398 48.6298 61.1418C49.0964 61.144 49.3748 61.0125 49.3643 60.4785C49.3483 59.6673 49.3574 58.8553 49.37 58.0438C49.3911 56.6838 50.3274 55.696 51.5717 55.7076C52.8528 55.7195 53.8096 56.6762 53.8471 58.0116C53.8692 58.7965 53.8625 59.5826 53.8508 60.3678C53.8444 60.8 53.8711 61.1434 54.4489 61.1437C54.9797 61.144 55.4065 61.1004 55.3229 60.2586ZM15.4767 72.2956C16.0479 72.2925 16.6192 72.2905 17.1904 72.2857C17.429 72.2837 17.7011 72.2782 17.777 72.0051C18.109 70.81 18.4611 69.6177 18.6452 68.3537C15.8367 68.3537 13.1076 68.3537 10.2292 68.3537C11.4244 69.763 12.7324 70.8204 14.0407 71.8803C14.428 72.194 14.8411 72.3486 15.4767 72.2956ZM14.9308 44.7127C15.8094 46.4661 16.6929 48.2162 18.043 49.826C18.3205 49.1345 19.0133 48.7736 18.5492 48.0124C16.6143 44.8391 15.1644 41.4255 13.7001 38.0201C13.287 37.0595 13.043 36.9534 11.8855 37.3144C12.7377 39.8093 13.7238 42.2426 14.9308 44.7127ZM12.915 48.609C11.212 45.6067 10.0335 42.3722 8.77816 38.9374C8.39063 39.6984 7.46614 39.9046 7.78349 40.8643C8.72004 43.6965 9.82942 46.4562 11.2114 49.0999C11.9072 50.4311 12.2762 50.5716 13.7982 50.1289C13.5181 49.6481 13.2446 49.1786 12.915 48.609ZM36.8489 75.6277C36.2259 75.627 35.602 75.647 34.9801 75.6192C34.4797 75.5968 34.1641 75.822 34.0704 76.2833C33.9477 76.8871 33.9073 77.5044 34.1042 78.1534C37.7019 78.0032 41.1169 77.2542 44.3894 75.879C44.3802 75.7953 44.371 75.7115 44.3618 75.6278C41.9095 75.6278 39.4573 75.6278 36.8489 75.6277ZM55.813 53.0694C56.008 52.6363 56.3748 52.265 56.3292 51.7259C53.1994 51.7259 50.1106 51.7259 47.0125 51.7259C47.2061 53.2887 47.4887 53.5531 48.8937 53.5542C50.8667 53.5557 52.8398 53.5527 54.8128 53.5568C55.1835 53.5576 55.5519 53.5775 55.813 53.0694ZM7.34335 52.0575C7.49267 52.4188 7.63805 52.7818 7.79254 53.1409C7.92011 53.4374 8.14481 53.5532 8.47235 53.5522C10.5455 53.5456 12.6186 53.5549 14.6918 53.5552C15.9992 53.5555 16.5033 53.0934 16.7263 51.6444C13.7099 51.6444 10.7034 51.6439 7.69686 51.6456C7.50036 51.6457 7.33328 51.6997 7.34335 52.0575ZM54.0359 50.2927C54.9988 50.2918 55.9616 50.2872 56.9245 50.2915C57.4753 50.2939 57.6725 49.8811 57.8674 49.4816C58.0641 49.0784 57.6936 48.9291 57.4797 48.7307C57.2165 48.4866 56.9272 48.2709 56.3826 47.8244C55.9653 48.3612 55.606 48.9152 55.1567 49.3813C54.3443 50.2239 54.186 50.1987 53.297 49.4037C52.7957 48.9553 52.3675 48.4208 51.7273 48.0208C51.171 48.4923 50.6158 48.9575 50.0668 49.4301C49.603 49.8293 49.1477 49.8511 48.6629 49.4578C48.1567 49.0472 47.624 48.6696 47.119 48.2576C46.451 47.7127 46.1617 48.4298 45.7387 48.6686C45.3252 48.902 45.3874 49.2299 45.5931 49.6047C45.858 50.0873 46.1964 50.3136 46.775 50.3065C49.1429 50.2776 51.5114 50.294 54.0359 50.2927ZM27.161 73.7499C26.1956 73.7499 25.2301 73.7499 24.2262 73.7499C24.6949 75.5695 24.6949 75.5695 26.3334 75.5698C28.0985 75.5702 29.8636 75.5707 31.6286 75.5709C32.9907 75.5711 33.2977 75.304 33.6123 73.7503C31.4993 73.7503 29.4083 73.7503 27.161 73.7499ZM36.3435 17.0819C36.3694 18.8912 36.1155 18.6774 37.8112 18.6864C39.8583 18.6972 39.8677 18.6897 39.8513 16.6351C39.8365 14.7714 40.0809 15.0195 38.2366 15.0216C36.0217 15.0241 36.3803 14.7469 36.3435 17.0819ZM15.6881 48.9608C13.4372 45.3269 11.8382 41.3833 10.4035 37.3446C9.8301 37.6624 9.95906 38.0066 10.0788 38.3687C10.7102 40.277 11.4152 42.1572 12.1996 44.0067C13.0466 46.0036 13.9639 47.9643 15.2499 49.7244C15.5122 50.0834 15.7802 50.4612 16.3962 50.1144C16.1753 49.7511 15.9636 49.4032 15.6881 48.9608ZM50.9116 62.5727C49.534 62.5597 48.1563 62.5563 46.779 62.5275C46.3873 62.5194 46.1173 62.5769 46.1591 63.1112C48.6824 62.6851 50.7366 63.2029 51.67 65.9847C52.0939 64.8508 52.645 63.9693 53.6424 63.4087C54.639 62.8485 55.7429 63.0289 56.8147 62.9685C56.8119 62.8402 56.8091 62.712 56.8063 62.5837C54.9058 62.3196 52.9755 62.6781 50.9116 62.5727ZM11.1618 64.3823C11.537 64.8271 11.7305 65.3731 12.0077 65.9543C12.4021 64.847 12.9751 63.9569 13.9892 63.3904C14.9709 62.8421 16.0737 63.0556 17.1225 62.8578C16.6751 62.4127 16.1485 62.4635 15.652 62.4971C13.7283 62.6272 11.8031 62.561 9.87879 62.5687C8.91993 62.5725 7.96233 62.3998 7.00107 62.5828C6.71135 62.638 6.43839 62.6476 6.46426 63.0929C8.18462 62.8824 9.83672 62.8423 11.1618 64.3823ZM39.617 66.8586C39.5389 67.4809 39.7627 67.7385 40.4321 67.7319C41.1303 67.7251 41.1607 67.3483 41.1562 66.8266C41.1438 65.3663 41.1555 63.9058 41.1566 62.4455C41.157 61.8942 40.9908 61.3957 40.3642 61.4136C39.742 61.4314 39.6138 61.9378 39.6167 62.4868C39.6242 63.8951 39.6178 65.3034 39.617 66.8586ZM38.4024 22.6703C38.6612 22.6695 38.92 22.6712 39.1787 22.6674C39.5046 22.6625 39.8804 22.628 39.8228 22.1974C39.728 21.4891 40.1849 20.6999 39.5367 20.0776C39.479 20.0222 39.3365 20.0502 39.2334 20.0499C38.483 20.0481 37.7324 20.0588 36.9823 20.0456C36.5173 20.0374 36.3367 20.2488 36.3423 20.7075C36.3704 23.0297 36.075 22.6239 38.1729 22.6709C38.1987 22.6715 38.2246 22.6709 38.4024 22.6703ZM42.705 70.3741C43.0847 70.3405 43.4823 70.4288 43.8339 70.2236C43.8286 69.1628 43.7507 69.0758 42.7709 69.0731C41.3695 69.0693 39.968 69.071 38.5666 69.0722C37.4404 69.0731 37.4311 69.0836 37.3835 70.3747C39.1126 70.3747 40.8391 70.3747 42.705 70.3741ZM26.3309 60.3762C25.9031 60.8628 25.4725 61.347 25.0487 61.8372C24.8695 62.0444 24.7481 62.259 24.9797 62.5236C25.5213 63.1423 25.9991 63.8203 26.6758 64.4186C27.2059 63.8189 27.7019 63.261 28.1935 62.6992C28.3151 62.5602 28.4529 62.3826 28.3 62.2145C27.702 61.5572 27.2936 60.706 26.3309 60.3762ZM8.51927 46.5823C7.7817 45.0381 7.26902 43.3998 6.61437 41.748C6.12783 42.0612 6.0162 42.364 6.17881 42.8466C6.67023 44.3053 7.18578 45.7543 7.81188 47.1595C8.21481 48.0638 8.6278 48.9675 9.19963 49.7833C9.42577 50.106 9.66062 50.4143 10.1656 50.1145C9.62136 48.9461 9.09587 47.8179 8.51927 46.5823ZM31.2274 69.9338C31.5128 70.3417 31.7955 70.4131 32.1402 69.9778C32.5271 69.4892 32.9476 69.0273 33.356 68.556C33.5216 68.3648 33.6383 68.1647 33.4366 67.9355C32.9795 67.4159 32.5756 66.8411 32.0012 66.4414C31.6249 66.6289 31.4383 66.9552 31.1969 67.2185C30.0225 68.4995 30.0263 68.503 31.2274 69.9338ZM22.8497 64.521C22.691 64.8895 22.2036 65.2319 22.4629 65.6379C22.8737 66.2812 23.4228 66.8352 23.9558 67.4781C24.5215 66.8441 24.9875 66.3194 25.4566 65.7975C25.6187 65.6172 25.6535 65.4336 25.4907 65.2381C24.9616 64.6026 24.431 63.9684 23.8817 63.3107C23.4209 63.6465 23.1718 64.043 22.8497 64.521ZM25.9709 76.9097C25.7131 76.9532 25.4012 76.7721 25.2063 77.0765C25.241 77.2538 25.3719 77.2815 25.4967 77.3143C27.6629 77.8837 29.8736 78.1037 32.1043 78.1725C32.4025 78.1817 32.518 78.052 32.5418 77.7633C32.5879 77.2034 32.4518 76.8851 31.7897 76.8963C29.8975 76.9286 28.0045 76.9105 25.9709 76.9097ZM27.8879 65.9585C28.2881 66.4295 28.6883 66.9004 29.161 67.4567C29.7533 66.7508 30.2843 66.1224 30.8095 65.4891C30.9686 65.2972 30.9343 65.0906 30.7765 64.9221C30.3218 64.4367 29.9482 63.8659 29.328 63.4674C28.8182 64.0592 28.3311 64.6294 27.8381 65.1945C27.6391 65.4224 27.5835 65.6431 27.8879 65.9585ZM5.28928 44.5019C5.24679 44.4782 5.17959 44.4245 5.16613 44.4358C5.11067 44.4823 5.05459 44.5418 5.02889 44.6083C4.48863 46.006 5.17598 49.0163 6.29036 50.0396C6.69993 50.4157 7.16538 50.3555 7.69441 50.0756C6.70439 48.2989 5.99616 46.4518 5.28928 44.5019ZM11.0299 58.4612C11.0309 59.1408 11.0549 59.8214 11.0266 60.4997C10.997 61.2066 11.4727 61.1423 11.9166 61.1382C12.3512 61.1341 12.8454 61.2275 12.8241 60.5148C12.8021 59.7836 12.8096 59.051 12.8231 58.3194C12.835 57.6749 12.6927 57.1299 11.927 57.128C11.1581 57.1261 11.0125 57.6786 11.0299 58.4612ZM52.4988 59.3603C52.4973 58.9426 52.5109 58.5241 52.4908 58.1073C52.4633 57.5393 52.195 57.1495 51.5917 57.1379C50.9736 57.126 50.7144 57.5183 50.7035 58.0927C50.6886 58.8756 50.7139 59.6596 50.687 60.4419C50.6677 60.9997 50.9295 61.1572 51.4413 61.1639C52.4417 61.1769 52.4957 61.1451 52.4991 60.1391C52.4998 59.9302 52.4989 59.7214 52.4988 59.3603ZM25.3368 67.9678C25.1236 68.2532 24.7911 68.5145 25.1215 68.9205C25.5455 69.4415 25.975 69.9579 26.4252 70.5043C27.0798 69.9703 27.4871 69.3249 27.9933 68.7726C28.1326 68.6206 28.1381 68.4313 28.0037 68.2702C27.5598 67.7383 27.2109 67.115 26.6039 66.7209C26.0953 67.0322 25.8003 67.5092 25.3368 67.9678ZM49.2209 38.085C49.1678 38.1425 49.1089 38.1957 49.0626 38.2583C48.8713 38.5173 48.5286 38.7405 48.895 39.1198C49.2562 39.4939 49.525 39.2864 49.8216 39.0219C50.2494 38.6404 50.708 38.2939 51.1356 37.9121C51.594 37.5029 52.0029 37.5464 52.436 37.9572C53.0001 38.4922 53.5869 39.0031 54.1604 39.5211C54.4918 39.3436 54.8583 39.1456 54.5628 38.8041C53.8739 38.0078 53.3594 36.8925 51.9854 37.1306C51.7074 37.1788 51.4091 37.1756 51.1293 37.134C50.3171 37.0129 49.7133 37.2987 49.2209 38.085ZM39.1037 37.5111C38.7255 36.8165 38.5214 36.0295 37.9674 35.2714C37.4017 36.4711 36.8839 37.5693 36.3417 38.719C37.4971 38.719 38.4844 38.719 39.4664 38.719C39.54 38.2406 39.2698 37.9536 39.1037 37.5111ZM42.2277 37.7872C42.143 38.1019 41.8776 38.3728 41.9951 38.7642C42.8934 38.7642 43.7859 38.7642 44.8113 38.7642C44.3666 37.4351 43.9523 36.197 43.458 34.7196C43.0006 35.859 42.6355 36.7681 42.2277 37.7872ZM29.9013 70.5042C29.6522 70.2487 29.4937 69.8976 29.1246 69.7511C28.7331 69.8987 28.5122 70.2383 28.311 70.5573C28.0419 70.9839 27.2764 71.2023 27.5675 71.8612C27.8846 72.5788 28.6144 72.2337 29.1732 72.2871C29.7226 72.3396 30.3071 72.3517 30.5737 71.724C30.8243 71.1341 30.1542 70.9776 29.9013 70.5042ZM33.8947 72.3101C34.6314 72.2803 35.6156 71.3992 35.6472 70.6448C35.6702 70.0961 35.166 69.8085 34.8002 69.5177C34.4412 69.2323 34.2707 69.6711 34.0746 69.8763C33.7699 70.1948 33.4768 70.527 33.205 70.8741C33.0094 71.1238 32.6018 71.3173 32.7705 71.709C32.9443 72.1123 33.2917 72.3499 33.8947 72.3101ZM44.3793 50.7751C43.5185 49.7016 41.7781 49.3672 40.5741 50.044C39.7188 50.5248 39.1596 51.8431 39.5238 52.8445C39.9987 51.5035 40.545 50.3134 42.0802 50.2986C43.68 50.2832 44.2582 51.4464 44.7234 52.785C45.0178 52.0566 44.7595 51.4604 44.3793 50.7751ZM32.1584 63.9347C32.4638 63.5818 32.7696 63.2292 33.0747 62.876C33.2657 62.6549 33.3379 62.4271 33.1031 62.1887C32.6539 61.7327 32.2888 61.1882 31.6944 60.7926C31.3142 61.2173 30.9533 61.6188 30.5945 62.0223C30.4888 62.1411 30.3545 62.3162 30.4641 62.4353C30.97 62.9847 31.2831 63.7421 32.1584 63.9347ZM35.1357 66.5071C35.3153 66.2096 35.815 66.0411 35.6566 65.618C35.3767 64.8702 34.9908 64.1683 34.3771 63.6328C32.7662 65.0113 32.7574 65.1019 34.0727 66.5342C34.2272 66.7025 34.3461 66.92 34.6337 66.9924C34.7695 66.8638 34.9176 66.7237 35.1357 66.5071ZM32.86 49.8797C31.6919 50.4528 31.0254 51.6484 31.4561 52.8426C31.8875 51.3864 32.4888 50.2866 34.0216 50.2761C35.5917 50.2654 36.0776 51.4824 36.5297 52.6738C36.9835 52.4558 36.8462 52.1906 36.7916 51.946C36.3735 50.074 35.1089 49.3738 32.86 49.8797ZM16.3271 64.9216C17.5827 64.9638 18.0042 66.1201 18.7098 66.8971C18.7565 65.2031 17.5112 64.0935 15.9148 64.2245C14.3361 64.354 13.2172 65.5267 13.4414 67.1623C14.1328 65.9206 14.7698 64.8419 16.3271 64.9216ZM32.19 43.9091C31.8736 44.3406 31.5539 44.7708 31.6018 45.6063C33.4915 43.1374 35.1924 42.9686 36.6304 45.7535C37.0793 45.6293 36.9866 45.3621 36.9106 45.0619C36.4082 43.0757 33.9469 42.4174 32.19 43.9091ZM32.14 36.6216C31.9649 37.335 31.5639 37.9881 31.5148 38.8043C32.3828 38.7954 33.1916 38.9147 34.0828 38.7025C33.59 37.551 33.1408 36.5016 32.6208 35.287C32.4216 35.8279 32.2969 36.1665 32.14 36.6216ZM49.5 64.9306C48.4211 64.1637 47.2668 64.1045 46.116 64.6855C45.2672 65.1141 44.9809 65.9371 44.9433 66.9193C45.653 65.9894 46.2357 64.9429 47.5778 64.9224C48.9641 64.9013 49.5493 65.9759 50.2281 66.9615C50.4174 66.1044 50.0523 65.5365 49.5 64.9306ZM17.1581 41.2106C16.8339 40.8641 16.5096 40.5177 16.0536 40.0305C17.0604 42.277 17.9607 44.3487 19.177 46.2646C19.3542 44.2778 18.5335 42.6907 17.1581 41.2106ZM24.6158 70.4829C24.3819 70.25 24.2532 69.9131 23.8472 69.7274C23.4944 70.0991 23.1225 70.4836 22.7602 70.8771C22.6532 70.9933 22.6169 71.13 22.665 71.3056C22.9014 72.1699 24.3855 72.6883 25.0979 72.1356C25.4165 71.8884 25.5869 71.5975 25.2299 71.2269C25.0332 71.0225 24.8658 70.7896 24.6158 70.4829ZM55.4971 64.2324C53.8001 64.6008 52.8364 65.6341 53.1046 67.1061C54.16 65.1179 55.4772 64.1297 57.4677 65.5851C57.8661 65.2753 57.8368 65.0124 57.4667 64.7632C56.9094 64.3881 56.2839 64.2454 55.4971 64.2324ZM29.8009 49.8873C30.0468 49.0377 30.2243 48.1552 31.1671 47.7414C32.1215 47.3225 32.8139 48.099 33.8074 48.4444C33.4082 47.4387 32.827 47.0328 32.04 46.9246C31.0646 46.7904 30.3838 47.1645 29.9212 48.0248C29.49 48.8266 29.3728 49.8921 29.5712 51.2464C29.7772 50.8465 29.6307 50.4066 29.8009 49.8873ZM30.3638 59.2661C29.4839 59.0928 28.6116 59.1837 27.5255 59.2009C28.2292 60.0032 28.7689 60.6186 29.3113 61.2369C29.8691 60.9008 30.165 60.4296 30.5471 60.0488C30.8277 59.7692 30.7155 59.5429 30.3638 59.2661ZM43.4116 44.0103C43.478 43.7397 43.3519 43.5749 43.1366 43.4245C41.5998 42.3513 39.1328 43.4282 38.8815 45.2907C38.8672 45.3964 38.9268 45.4921 39.0478 45.5238C39.3267 45.5411 39.3648 45.3027 39.4609 45.1272C40.2759 43.6391 41.3769 43.3085 42.9025 44.1018C43.0681 44.188 43.214 44.316 43.4116 44.0103ZM36.8025 48.0338C38.0813 47.357 38.788 47.4712 39.7488 48.5304C39.881 48.6761 39.9796 48.8343 40.1866 48.6795C40.3519 48.5558 40.2621 48.4076 40.2031 48.2599C39.7796 47.1996 38.3237 46.5774 37.2601 47.0058C36.5307 47.2997 35.9831 48.0154 36.0075 48.6593C36.3858 48.6569 36.4559 48.2585 36.8025 48.0338ZM50.408 32.3302C51.061 32.9041 51.9436 33.0333 52.5269 32.6216C52.7823 32.4412 53.078 32.205 52.874 31.8584C52.5663 31.3355 52.0098 31.1605 51.4631 31.2516C50.9438 31.3381 50.2565 31.3834 50.408 32.3302ZM12.911 32.5745C13.3885 31.9852 13.3342 31.7072 12.6937 31.4064C12.1045 31.1298 11.5323 31.1771 10.9957 31.5202C10.5138 31.8283 10.5026 32.253 10.9772 32.5792C11.5641 32.9828 12.1909 32.9446 12.911 32.5745ZM29.8434 53.5587C29.5752 53.3727 29.2698 53.3193 28.9541 53.3211C28.4501 53.324 27.9498 53.3649 27.6625 53.8678C27.5337 54.0933 27.5807 54.3396 27.772 54.5132C28.1795 54.883 28.657 55.0437 29.2042 54.8991C29.3786 54.8531 29.5584 54.7987 29.712 54.7076C30.1657 54.4383 30.3546 54.0962 29.8434 53.5587ZM10.0825 65.1452C9.26746 64.3334 8.2997 64.2154 7.05745 64.4717C7.74363 65.1518 8.59015 64.8517 9.2135 65.26C9.85675 65.6812 9.91689 66.5578 10.6832 67.0266C10.7624 66.2349 10.4789 65.7281 10.0825 65.1452ZM11.3831 34.3645C11.2075 34.7915 11.0788 35.2268 11.1137 35.7232C11.6963 35.8543 12.2453 35.8506 12.7933 35.741C12.845 34.342 12.7627 34.255 11.3831 34.3645ZM40.637 45.946C40.4459 46.4788 40.779 46.7599 41.1417 47.0627C41.5092 46.7354 41.8541 46.4281 42.1992 46.1212C42.2185 46.104 42.2396 46.0886 42.2603 46.0729C42.5916 45.8194 42.4315 45.5606 42.2406 45.3379C41.7694 44.7876 41.114 45.0037 40.637 45.946ZM29.3789 56.3716C28.1791 56.2662 28.0663 56.3824 28.071 57.7899C28.6269 57.7916 29.1836 57.9001 29.7774 57.7165C29.7544 57.2573 29.7442 56.8222 29.3789 56.3716ZM51.6892 35.8118C52.0421 35.7727 52.5679 35.9582 52.4869 35.2977C52.4304 34.8367 52.4718 34.2638 51.7025 34.3095C50.989 34.3518 50.8356 34.5504 50.8198 35.682C51.036 35.8846 51.3088 35.7814 51.6892 35.8118ZM34.902 45.5274C34.189 44.988 33.8834 45.0425 33.4092 45.8487C33.9604 46.2367 34.43 46.736 34.9117 47.2283C35.5619 46.6657 35.1217 46.1441 34.902 45.5274ZM38.7335 5.64175C38.1292 5.34792 37.5685 5.41512 37.0895 5.88977C36.9069 6.0707 37.0119 6.28309 37.1707 6.44429C37.5995 6.87968 38.1169 6.77826 38.6322 6.67587C38.6569 6.67096 38.6803 6.65581 38.7024 6.64235C39.1348 6.37963 39.3588 6.08888 38.7335 5.64175ZM46.1363 75.079C46.9556 74.7445 47.7269 74.3284 48.5447 73.7165C47.8781 73.7165 47.3602 73.7117 46.8425 73.7175C45.8413 73.7288 45.6582 74.0456 46.1363 75.079ZM37.5598 50.2101C37.7166 50.5331 37.8735 50.856 38.0602 51.2402C38.2444 50.8838 38.392 50.5854 38.5512 50.2935C38.7503 49.9286 38.8739 49.5593 38.5473 49.2099C38.3335 48.9812 38.061 48.901 37.7714 49.0798C37.3623 49.3324 37.3469 49.6985 37.5598 50.2101ZM33.1513 52.2311C33.0859 52.4291 32.8416 52.7247 33.2544 52.752C33.8038 52.7882 34.3775 52.8911 34.9154 52.6482C34.675 51.5628 34.0345 51.3875 33.1513 52.2311ZM42.0396 51.675C41.5147 51.8065 41.2117 52.1274 41.1218 52.7207C41.8055 52.787 42.4223 52.8524 43.0602 52.6708C42.9679 52.0604 42.6586 51.7695 42.0396 51.675ZM22.8372 68.2998C22.5614 67.9431 22.314 67.5575 21.8186 67.2001C21.8321 68.0785 21.6534 68.8156 22.0953 69.6097C22.4019 69.1324 22.9366 68.9688 22.8372 68.2998ZM41.4851 72.8416C41.2631 73.2334 40.97 73.6 41.0046 74.1524C41.4406 74.1511 41.8389 74.2586 42.2783 74.0539C42.0568 73.5883 41.9938 73.0912 41.4851 72.8416ZM37.7034 73.3409C37.6225 73.5957 37.3565 73.7973 37.4953 74.173C37.8752 74.1529 38.272 74.2831 38.6916 74.0492C38.5963 73.5762 38.4253 73.167 38.1665 72.8033C37.8673 72.8417 37.8581 73.0882 37.7034 73.3409ZM36.5628 72.5433C36.6456 72.3247 36.8236 72.1302 36.7158 71.8469C36.2575 72.6215 35.482 73.1836 35.1626 74.2507C36.1399 73.9876 36.1248 73.1482 36.5628 72.5433ZM42.5008 48.3657C42.8072 48.3655 43.1174 48.4495 43.4529 48.325C43.4796 47.908 43.3486 47.5455 43.1268 47.1062C42.7991 47.5435 42.1077 47.6327 42.5008 48.3657ZM39.6147 71.7458C39.0733 72.2974 39.7349 72.5173 39.9076 73.0859C40.0654 72.5258 40.3921 72.2524 40.3349 71.8367C40.1305 71.6914 39.9201 71.7482 39.6147 71.7458ZM15.5724 66.4444C15.4679 66.5495 15.3104 66.6289 15.409 66.8713C15.8557 66.9453 16.3168 66.9843 16.8378 66.8175C16.5279 66.2875 16.1675 66.1331 15.5724 66.4444ZM55.7458 66.2928C55.4171 66.3447 55.1118 66.4249 55.0166 66.8786C55.5166 66.9011 55.9574 67.0546 56.3752 66.76C56.3018 66.439 56.0651 66.3904 55.7458 66.2928ZM47.7309 66.9273C47.9246 66.8985 48.1512 66.9941 48.2982 66.7806C47.7983 66.1291 47.3502 66.1435 46.9466 66.8251C47.1505 66.988 47.392 66.9001 47.7309 66.9273ZM42.8854 71.822C42.8238 72.2247 43.0495 72.4928 43.3105 72.8111C43.5696 72.4838 43.7332 72.1819 43.7674 71.7657C43.4756 71.7657 43.2211 71.7657 42.8854 71.822ZM36.2472 67.9534C36.2075 67.8346 36.2976 67.5655 36.0357 67.6862C35.8599 67.7673 35.6736 67.9519 35.6799 68.1695C35.6879 68.4482 35.8614 68.6339 36.1555 68.6717C36.3067 68.4716 36.2259 68.2563 36.2472 67.9534Z" fill="#BD9E5E"/>
</svg>
