<svg width="26" height="26" viewBox="0 0 26 26" fill="none" xmlns="http://www.w3.org/2000/svg">
<path d="M13.0001 0.394043C10.5069 0.394043 8.0696 1.13337 5.99655 2.51854C3.9235 3.90371 2.30775 5.87251 1.35363 8.17597C0.39951 10.4794 0.149862 13.0141 0.636267 15.4594C1.12267 17.9048 2.32329 20.1509 4.08628 21.914C5.84927 23.677 8.09545 24.8775 10.5408 25.364C12.9861 25.8504 15.5208 25.6006 17.8243 24.6465C20.1277 23.6924 22.0965 22.0768 23.4817 20.0037C24.8668 17.9306 25.6062 15.4934 25.6062 13.0001C25.6062 9.65677 24.278 6.45037 21.914 4.08628C19.5499 1.72217 16.3434 0.394043 13.0001 0.394043ZM19.1928 9.02919L17.1286 18.7831C16.971 19.4765 16.5613 19.634 15.9783 19.3189L12.8268 16.9868L11.251 18.4522C11.1768 18.5491 11.0815 18.6279 10.9723 18.6826C10.8631 18.7371 10.7428 18.7661 10.6207 18.7674L10.8413 15.6159L16.6716 10.3371C16.9395 10.1165 16.6716 9.99041 16.2934 10.211L9.1395 14.7019L5.98798 13.725C5.31041 13.5201 5.29465 13.0474 6.1298 12.7322L18.2789 8.00495C18.8777 7.83162 19.3819 8.17828 19.1928 9.02919Z" fill="#989389"/>
</svg>
